{"title":"1966 - Le scandale","uid":13155358,"size":735158272,"categoryP":"video","categoryS":"movies","magnet":"?xt=urn:btih:35a4a4897e6ed36cd8e43f45b238bbfc6f127abf&amp;dn=1966+-+Le+scandale&amp;tr=udp%3A%2F%2Ftracker.leechers-paradise.org%3A6969&amp;tr=udp%3A%2F%2Fzer0day.ch%3A1337&amp;tr=udp%3A%2F%2Fopen.demonii.com%3A1337&amp;tr=udp%3A%2F%2Ftracker.coppersurfer.tk%3A6969&amp;tr=udp%3A%2F%2Fexodus.desync.com%3A6969","seeders":1,"leechers":0,"uploader":"wesleybl","files":1,"time":1452094805,"description":"Le scandale (1967)\r\n\r\nDirector: Claude Chabrol\r\n\r\n\r\nVideo\r\nID                                       : 0\r\nFormat                                   : MPEG-4 Visual\r\nFormat settings, BVOP                    : 1\r\nFormat settings, QPel                    : No\r\nFormat settings, GMC                     : No warppoints\r\nFormat settings, Matrix                  : Default (H.263)\r\nMuxing mode                              : Packed bitstream\r\nCodec ID                                 : DX50\r\nCodec ID/Hint                            : DivX 5\r\nDuration                                 : 1h 46mn\r\nBit rate                                 : 819 Kbps\r\nWidth                                    : 608 pixels\r\nHeight                                   : 326 pixels\r\nDisplay aspect ratio                     : 1.85:1\r\nFrame rate                               : 25.000 fps\r\nColor space                              : YUV\r\nChroma subsampling                       : 4:2:0\r\nBit depth                                : 8 bits\r\nScan type                                : Progressive\r\nCompression mode                         : Lossy\r\nBits/(Pixel*Frame)                       : 0.165\r\nStream size                              : 621 MiB (89%)\r\nWriting library                          : DivX 6.0.0 (UTC 2005-06-15)\r\n\r\nAudio\r\nID                                       : 1\r\nFormat                                   : MPEG Audio\r\nFormat version                           : Version 1\r\nFormat profile                           : Layer 3\r\nMode                                     : Joint stereo\r\nMode extension                           : MS Stereo\r\nCodec ID                                 : 55\r\nCodec ID/Hint                            : MP3\r\nDuration                                 : 1h 46mn\r\nBit rate mode                            : Constant\r\nBit rate                                 : 96.0 Kbps\r\nChannel(s)                               : 2 channels\r\nSampling rate                            : 44.1 KHz\r\nCompression mode                         : Lossy\r\nStream size                              : 72.8 MiB (10%)\r\nAlignment                                : Split accross interleaves\r\nInterleave, duration                     : 40 ms (1.00 video frame)\r\nInterleave, preload duration             : 500 ms","torrent":{"xt":"urn:btih:35a4a4897e6ed36cd8e43f45b238bbfc6f127abf","amp;dn":"1966+-+Le+scandale","amp;tr":["udp%3A%2F%2Ftracker.leechers-paradise.org%3A6969","udp%3A%2F%2Fzer0day.ch%3A1337","udp%3A%2F%2Fopen.demonii.com%3A1337","udp%3A%2F%2Ftracker.coppersurfer.tk%3A6969","udp%3A%2F%2Fexodus.desync.com%3A6969"],"infoHash":"35a4a4897e6ed36cd8e43f45b238bbfc6f127abf","infoHashBuffer":{"type":"Buffer","data":[53,164,164,137,126,110,211,108,216,228,63,69,178,56,187,252,111,18,122,191]},"announce":[],"urlList":[]}}